<?xml version="1.0" standalone="no"?>
<!DOCTYPE svg PUBLIC "-//W3C//DTD SVG 20010904//EN"
 "http://www.w3.org/TR/2001/REC-SVG-20010904/DTD/svg10.dtd">
<svg version="1.0" xmlns="http://www.w3.org/2000/svg"
 width="600.000000pt" height="600.000000pt" viewBox="0 0 600.000000 600.000000"
 preserveAspectRatio="xMidYMid meet">

<g transform="translate(0.000000,600.000000) scale(0.100000,-0.100000)"
fill="#000000" stroke="none">
<path d="M2945 5463 c-103 -23 -295 -110 -346 -157 -13 -12 -39 -32 -57 -45
-37 -26 -126 -134 -166 -202 -14 -26 -40 -83 -56 -128 -29 -78 -30 -89 -30
-241 0 -146 2 -165 26 -232 61 -171 153 -292 309 -405 l30 -21 -23 -84 c-12
-45 -31 -114 -42 -153 -11 -38 -33 -119 -49 -180 -16 -60 -41 -150 -56 -200
-15 -49 -37 -130 -50 -180 -13 -49 -33 -123 -44 -162 -35 -120 -60 -209 -80
-280 -28 -101 -144 -437 -182 -528 -53 -128 -175 -320 -254 -400 -77 -79 -375
-268 -495 -315 -19 -7 -80 -35 -135 -60 -55 -26 -117 -53 -139 -61 -41 -15
-76 -51 -76 -78 0 -9 11 -34 25 -56 13 -22 25 -51 25 -64 0 -13 29 -139 64
-280 35 -141 69 -282 76 -313 6 -31 20 -68 31 -82 l20 -26 1749 0 1750 0 14
22 c8 13 17 43 20 68 7 49 58 275 81 355 7 28 23 95 34 150 11 55 28 121 37
148 15 44 15 49 -1 73 -17 26 -71 54 -184 94 -95 33 -239 112 -361 198 -133
92 -258 245 -338 410 -64 131 -166 480 -207 701 -8 42 -21 110 -30 151 -9 41
-21 101 -26 133 -5 31 -13 83 -19 115 -17 101 -30 181 -60 365 -6 34 -17 105
-25 157 -7 52 -18 120 -24 150 -21 112 -31 177 -31 197 0 13 18 32 56 57 76
51 194 173 238 247 65 109 80 166 84 329 4 140 3 149 -25 230 -55 159 -198
351 -329 441 -76 52 -198 108 -280 129 -65 16 -110 20 -254 19 -96 -1 -184 -3
-195 -6z m470 -162 c154 -46 324 -149 386 -233 40 -54 92 -167 108 -233 16
-63 16 -206 1 -270 -7 -28 -30 -88 -52 -135 -34 -71 -56 -100 -132 -176 -77
-77 -106 -98 -186 -138 -108 -52 -190 -75 -302 -85 -164 -14 -307 13 -457 85
-80 39 -109 60 -186 138 -72 71 -100 107 -128 166 -49 100 -67 177 -67 280 0
201 86 364 254 479 72 50 202 107 286 126 41 9 80 19 85 21 6 2 80 2 165 0
121 -3 170 -8 225 -25z m-455 -1387 c119 -25 347 -15 461 21 15 5 19 1 19 -15
0 -32 93 -548 156 -865 140 -705 236 -1015 384 -1235 20 -30 39 -62 42 -70 3
-8 125 -109 271 -225 146 -115 265 -211 263 -212 -1 -2 -705 2 -1563 7 -1275
8 -1565 12 -1586 23 -26 14 -24 15 71 52 418 165 632 348 789 674 102 212 194
493 378 1158 64 230 135 485 157 566 41 148 41 148 67 142 14 -4 55 -13 91
-21z m967 -2650 l702 -6 39 -30 39 -30 -11 -52 -12 -51 -944 3 c-520 1 -1265
5 -1657 8 l-711 6 -6 24 c-4 13 -9 51 -13 84 l-6 61 939 -6 c516 -3 1255 -8
1641 -11z m-853 -214 c874 -6 1591 -12 1593 -14 3 -2 -4 -24 -15 -48 -11 -23
-26 -69 -33 -102 l-13 -58 -400 6 c-221 3 -768 8 -1216 11 -448 3 -983 8
-1187 11 l-373 6 0 27 c0 14 -6 44 -14 66 -7 22 -16 55 -19 73 l-6 32 47 0
c26 0 762 -5 1636 -10z"/>
</g>
</svg>
