<svg width="100" height="100" viewBox="0 0 100 100" fill="none" xmlns="http://www.w3.org/2000/svg">
<rect width="100" height="100" fill="white"/>
<path d="M10 22C10 16.4772 14.4772 12 20 12H80C85.5228 12 90 16.4772 90 22V22C90 27.5228 85.5228 32 80 32H20C14.4772 32 10 27.5228 10 22V22Z" fill="#7048E8"/>
<path d="M10 50.5C10 44.9772 14.4772 40.5 20 40.5H80C85.5228 40.5 90 44.9772 90 50.5C90 56.0228 85.5228 60.5 80 60.5H20C14.4772 60.5 10 56.0228 10 50.5Z" fill="#7048E8"/>
<path d="M10 79.5C10 73.9772 14.4772 69.5 20 69.5H80C85.5228 69.5 90 73.9772 90 79.5C90 85.0228 85.5228 89.5 80 89.5H20C14.4772 89.5 10 85.0228 10 79.5Z" fill="#7048E8"/>
<path d="M21.9716 17.2727V26H20.9148V18.3807H20.8636L18.733 19.7955V18.7216L20.9148 17.2727H21.9716Z" fill="white"/>
<path d="M18.9034 55V54.233L21.7841 51.0795C22.1222 50.7102 22.4006 50.3892 22.6193 50.1165C22.8381 49.8409 23 49.5824 23.1051 49.3409C23.2131 49.0966 23.267 48.8409 23.267 48.5739C23.267 48.267 23.1932 48.0014 23.0455 47.777C22.9006 47.5526 22.7017 47.3793 22.4489 47.2571C22.196 47.1349 21.9119 47.0739 21.5966 47.0739C21.2614 47.0739 20.9688 47.1435 20.7188 47.2827C20.4716 47.419 20.2798 47.6108 20.1435 47.858C20.0099 48.1051 19.9432 48.3949 19.9432 48.7273H18.9375C18.9375 48.2159 19.0554 47.767 19.2912 47.3807C19.527 46.9943 19.848 46.6932 20.2543 46.4773C20.6634 46.2614 21.1222 46.1534 21.6307 46.1534C22.142 46.1534 22.5952 46.2614 22.9901 46.4773C23.3849 46.6932 23.6946 46.9844 23.919 47.3509C24.1435 47.7173 24.2557 48.125 24.2557 48.5739C24.2557 48.8949 24.1974 49.2088 24.081 49.5156C23.9673 49.8196 23.7685 50.1591 23.4844 50.5341C23.2031 50.9062 22.8125 51.3608 22.3125 51.8977L20.3523 53.9943V54.0625H24.4091V55H18.9034Z" fill="white"/>
<path d="M21.8523 84.1193C21.2898 84.1193 20.7884 84.0227 20.348 83.8295C19.9105 83.6364 19.5625 83.3679 19.304 83.0241C19.0483 82.6776 18.9091 82.2756 18.8864 81.8182H19.9602C19.983 82.0994 20.0795 82.3423 20.25 82.5469C20.4205 82.7486 20.6435 82.9048 20.919 83.0156C21.1946 83.1264 21.5 83.1818 21.8352 83.1818C22.2102 83.1818 22.5426 83.1165 22.8324 82.9858C23.1222 82.8551 23.3494 82.6733 23.5142 82.4403C23.679 82.2074 23.7614 81.9375 23.7614 81.6307C23.7614 81.3097 23.6818 81.027 23.5227 80.7827C23.3636 80.5355 23.1307 80.3423 22.8239 80.2031C22.517 80.0639 22.142 79.9943 21.6989 79.9943H21V79.0568H21.6989C22.0455 79.0568 22.3494 78.9943 22.6108 78.8693C22.875 78.7443 23.081 78.5682 23.2287 78.3409C23.3793 78.1136 23.4545 77.8466 23.4545 77.5398C23.4545 77.2443 23.3892 76.9872 23.2585 76.7685C23.1278 76.5497 22.9432 76.3793 22.7045 76.2571C22.4688 76.1349 22.1903 76.0739 21.8693 76.0739C21.5682 76.0739 21.2841 76.1293 21.017 76.2401C20.7528 76.348 20.5369 76.5057 20.3693 76.7131C20.2017 76.9176 20.1108 77.1648 20.0966 77.4545H19.0739C19.0909 76.9972 19.2287 76.5966 19.4872 76.2528C19.7457 75.9062 20.0838 75.6364 20.5014 75.4432C20.9219 75.25 21.3835 75.1534 21.8864 75.1534C22.4261 75.1534 22.8892 75.2628 23.2756 75.4815C23.6619 75.6974 23.9588 75.983 24.1662 76.3381C24.3736 76.6932 24.4773 77.0767 24.4773 77.4886C24.4773 77.9801 24.348 78.3991 24.0895 78.7457C23.8338 79.0923 23.4858 79.3324 23.0455 79.4659V79.5341C23.5966 79.625 24.027 79.8594 24.3366 80.2372C24.6463 80.6122 24.8011 81.0767 24.8011 81.6307C24.8011 82.1051 24.6719 82.5312 24.4134 82.9091C24.1577 83.2841 23.8082 83.5795 23.3651 83.7955C22.9219 84.0114 22.4176 84.1193 21.8523 84.1193Z" fill="white"/>
</svg>
